<?xml version="1.0" encoding="iso-8859-1"?>
<!-- Generator: Adobe Illustrator 19.0.0, SVG Export Plug-In . SVG Version: 6.00 Build 0)  -->
<svg version="1.1" id="Layer_1" xmlns="http://www.w3.org/2000/svg" xmlns:xlink="http://www.w3.org/1999/xlink" x="0px" y="0px"
	 viewBox="0 0 505 505" style="enable-background:new 0 0 505 505;" xml:space="preserve">
<circle style="fill:#90DFAA;" cx="252.5" cy="252.5" r="252.5"/>
<path style="fill:#FFFFFF;" d="M97.5,172.5v171.9c0,16.7,13.5,30.2,30.2,30.2h249.6c16.7,0,30.2-13.5,30.2-30.2V172.5H97.5z"/>
<path style="fill:#324A5E;" d="M97.5,184.1v-23.5c0-16.7,13.5-30.2,30.2-30.2h249.6c16.7,0,30.2,13.5,30.2,30.2v23.5H97.5z"/>
<g>
	<circle style="fill:#FFFFFF;" cx="369.5" cy="158.8" r="10.1"/>
	<circle style="fill:#FFFFFF;" cx="331.4" cy="158.8" r="10.1"/>
	<circle style="fill:#FFFFFF;" cx="293.4" cy="158.8" r="10.1"/>
</g>
<path style="fill:#84DBFF;" d="M371.8,274c-1.4-7.1-4.1-13.6-8-19.4l7.3-11.5l-10-10l-11.5,7.3c-5.7-3.9-12.3-6.7-19.4-8l-2.9-13.3
	h-14.2l-2.9,13.3c-7.1,1.4-13.6,4.1-19.4,8l-11.5-7.3l-10,10l7.3,11.5c-3.9,5.7-6.7,12.3-8,19.4l-13.3,2.9v14.2l13.3,3
	c1.4,7,4.1,13.6,8,19.4l-7.3,11.5l10,10l11.5-7.3c5.7,3.9,12.3,6.7,19.4,8l2.9,13.3h14.2l2.9-13.3c7.1-1.4,13.6-4.1,19.4-8l11.5,7.3
	l10-10l-7.3-11.5c3.9-5.7,6.7-12.3,8-19.4l13.3-3v-14.2L371.8,274z M320.1,314.3c-16.7,0-30.3-13.6-30.3-30.3s13.6-30.3,30.3-30.3
	s30.3,13.6,30.3,30.3S336.9,314.3,320.1,314.3z"/>
<g>
	<rect x="119.9" y="238.1" style="fill:#CED5E0;" width="108.6" height="15.2"/>
	<rect x="119.9" y="270" style="fill:#CED5E0;" width="108.6" height="15.2"/>
	<rect x="119.9" y="301.9" style="fill:#CED5E0;" width="108.6" height="15.2"/>
	<rect x="119.9" y="333.8" style="fill:#CED5E0;" width="62.1" height="15.2"/>
</g>
<polygon style="fill:#FF7058;" points="184.7,200.5 184.7,103.3 166,103.3 166,200.5 148.8,200.5 175.4,227.1 202,200.5 "/>
<g>
</g>
<g>
</g>
<g>
</g>
<g>
</g>
<g>
</g>
<g>
</g>
<g>
</g>
<g>
</g>
<g>
</g>
<g>
</g>
<g>
</g>
<g>
</g>
<g>
</g>
<g>
</g>
<g>
</g>
</svg>
