<?xml version="1.0" encoding="iso-8859-1"?>
<!-- Generator: Adobe Illustrator 19.0.0, SVG Export Plug-In . SVG Version: 6.00 Build 0)  -->
<svg version="1.1" id="Layer_1" xmlns="http://www.w3.org/2000/svg" xmlns:xlink="http://www.w3.org/1999/xlink" x="0px" y="0px"
	 viewBox="0 0 505 505" style="enable-background:new 0 0 505 505;" xml:space="preserve">
<circle style="fill:#90DFAA;" cx="252.5" cy="252.5" r="252.5"/>
<path style="fill:#324A5E;" d="M379.6,470.8c-7.9,4.6-16.1,8.8-24.6,12.6L252.5,282.8L150,483.3c-8.4-3.7-16.6-8-24.6-12.6
	l114.8-224.5l12.3,6.3l12.3-6.3L379.6,470.8z"/>
<circle style="fill:#FF7058;" cx="252.5" cy="252.5" r="157.6"/>
<circle style="fill:#FFFFFF;" cx="252.5" cy="252.5" r="123.3"/>
<circle style="fill:#FF7058;" cx="252.5" cy="252.5" r="93.4"/>
<circle style="fill:#FFFFFF;" cx="252.5" cy="252.5" r="57.6"/>
<circle style="fill:#FF7058;" cx="252.5" cy="252.5" r="25.5"/>
<g>
	<polygon style="fill:#54C0EB;" points="418.3,164.5 356,149 426.6,78.4 488.9,93.9 	"/>
	<polygon style="fill:#54C0EB;" points="426.6,78.4 411.1,16.1 340.5,86.7 356,149 	"/>
</g>
<path style="fill:#324A5E;" d="M450.1,54.9c-4.6-4.6-12.1-4.6-16.7,0L243.7,244.5c-4.6,4.6-4.6,12.1,0,16.7c2.3,2.3,5.3,3.5,8.4,3.5
	c3,0,6.1-1.2,8.4-3.5L450.1,71.6C454.8,67,454.8,59.5,450.1,54.9z"/>
<g>
</g>
<g>
</g>
<g>
</g>
<g>
</g>
<g>
</g>
<g>
</g>
<g>
</g>
<g>
</g>
<g>
</g>
<g>
</g>
<g>
</g>
<g>
</g>
<g>
</g>
<g>
</g>
<g>
</g>
</svg>
